<?xml version="1.0" encoding="UTF-8"?>
<svg width="17px" height="17px" viewBox="0 0 17 17" version="1.1" xmlns="http://www.w3.org/2000/svg" xmlns:xlink="http://www.w3.org/1999/xlink">
    <!-- Generator: Sketch 54.1 (76490) - https://sketchapp.com -->
    <title>Group 6</title>
    <desc>Created with Sketch.</desc>
    <g id="Checkout" stroke="none" stroke-width="1" fill="none" fill-rule="evenodd">
        <g id="entrega" transform="translate(-627.000000, -1587.000000)">
            <g id="Group-6" transform="translate(627.000000, 1587.000000)">
                <circle id="Oval" fill="#FAAF45" cx="8.5" cy="8.5" r="8.5"></circle>
                <path d="M9.204,3.904 C10.0520042,3.904 10.7279975,4.12199782 11.232,4.558 C11.7360025,4.99400218 11.988,5.61999592 11.988,6.436 C11.988,7.1960038 11.7420025,7.79199784 11.25,8.224 C10.7579975,8.65600216 10.1000041,8.87999992 9.276,8.896 L9.276,9.964 L7.344,9.964 L7.344,7.576 L8.148,7.576 C8.72400288,7.576 9.1719984,7.49400082 9.492,7.33 C9.8120016,7.16599918 9.972,6.87200212 9.972,6.448 C9.972,6.17599864 9.89600076,5.96400076 9.744,5.812 C9.59199924,5.65999924 9.38800128,5.584 9.132,5.584 C8.84399856,5.584 8.61800082,5.66999914 8.454,5.842 C8.28999918,6.01400086 8.208,6.23199868 8.208,6.496 L6.276,6.496 C6.25999992,6.0159976 6.3619989,5.57800198 6.582,5.182 C6.8020011,4.78599802 7.13599776,4.47400114 7.584,4.246 C8.03200224,4.01799886 8.57199684,3.904 9.204,3.904 Z M9.384,10.948 L9.384,13 L7.248,13 L7.248,10.948 L9.384,10.948 Z" id="?" fill="#FAFAFA" fill-rule="nonzero"></path>
            </g>
        </g>
    </g>
</svg>